Coordinates
version=1
nRows=9
nColumns=63
inDegrees=yes

Units are S.I. units (second, meters, Newtons, ...)
If the header above contains a line with 'inDegrees', this indicates whether rotational values are in degrees (yes) or radians (no).

endheader
time	pelvis_tilt	pelvis_list	pelvis_rotation	pelvis_tx	pelvis_ty	pelvis_tz	hip_flexion_r	hip_adduction_r	hip_rotation_r	knee_angle_r	knee_angle_r_beta	ankle_angle_r	subtalar_angle_r	mtp_angle_r	hip_flexion_l	hip_adduction_l	hip_rotation_l	knee_angle_l	knee_angle_l_beta	ankle_angle_l	subtalar_angle_l	mtp_angle_l	L5_S1_Flex_Ext	L5_S1_Lat_Bending	L5_S1_axial_rotation	L4_L5_Flex_Ext	L4_L5_Lat_Bending	L4_L5_axial_rotation	L3_L4_Flex_Ext	L3_L4_Lat_Bending	L3_L4_axial_rotation	L2_L3_Flex_Ext	L2_L3_Lat_Bending	L2_L3_axial_rotation	L1_L2_Flex_Ext	L1_L2_Lat_Bending	L1_L2_axial_rotation	L1_T12_Flex_Ext	L1_T12_Lat_Bending	L1_T12_axial_rotation	Abs_r3	Abs_r2	Abs_r1	Abs_t1	Abs_t2	neck_flexion	neck_bending	neck_rotation	arm_flex_r	arm_add_r	arm_rot_r	elbow_flex_r	pro_sup_r	wrist_flex_r	wrist_dev_r	arm_flex_l	arm_add_l	arm_rot_l	elbow_flex_l	pro_sup_l	wrist_flex_l	wrist_dev_l
      1.26666667	      0.26977650	     12.55401066	   -101.01844084	      0.00186062	      0.86459994	      0.18123634	      9.37584320	     -3.00088284	      5.18333315	      2.87371188	      0.05015573	      2.34561447	      9.26431250	      0.00000000	      5.05694830	     -2.64726777	    -17.27556025	      0.92378357	      0.01612306	      4.73874914	      1.65156846	      0.00000000	      0.01642667	      0.23425193	      0.37727315	      0.03050598	      0.31155506	      0.40085272	      0.02698738	      0.56956013	      0.40085272	      0.01877405	      0.56956013	      0.33011400	      0.01525381	      0.47768653	      0.30653443	      0.00938620	      0.36285623	      0.28295486	      0.11733409	      2.64990464	      2.09828007	      0.00000000	      0.00000000	      0.00000000	      0.00000000	      0.00000000	     -7.04248146	    -10.97108096	     -1.01236293	     40.97747253	     89.99559364	      0.00000000	      0.00000000	     -8.21797833	     -9.21273709	    -10.64649666	     41.00157800	     89.99559364	      0.00000000	      0.00000000
      1.30000000	     -0.08348324	     11.28311905	   -100.75311199	      0.00114021	      0.86403690	      0.18240455	      7.65532219	     -2.93473703	      4.77348092	      2.37109430	      0.04138340	      2.54732115	      9.76629580	      0.00000000	      3.59550442	     -2.80735521	    -16.71000845	      0.82622584	      0.01442036	      5.74122259	      1.78791216	      0.00000000	      0.01531673	      0.29185281	      0.43496196	      0.02844470	      0.38816423	      0.46214708	      0.02516385	      0.70961091	      0.46214708	      0.01750549	      0.70961091	      0.38059171	      0.01422311	      0.59514624	      0.35340659	      0.00875198	      0.45208000	      0.32622147	      0.10940586	      3.30149732	      2.41912792	      0.00000000	      0.00000000	      0.00000000	      0.00000000	      0.00000000	     -7.69824769	    -10.83173868	     -1.85496077	     41.03738629	     89.99559364	      0.00000000	      0.00000000	     -7.91439187	     -8.16514409	    -11.25351662	     37.72755639	     89.99559364	      0.00000000	      0.00000000
      1.33333333	     -0.16790341	     10.29515552	   -100.88226894	     -0.00029090	      0.86394790	      0.18431597	      6.83605199	     -3.02663046	      4.38848253	      2.97123193	      0.05185778	      3.48970192	     11.15245458	      0.00000000	      2.55070452	     -2.78172299	    -16.73432717	      1.04396664	      0.01822066	      6.44523051	      1.61272856	      0.00000000	      0.01524292	      0.31255628	      0.44362445	      0.02830763	      0.41569985	      0.47135098	      0.02504259	      0.75994933	      0.47135098	      0.01742113	      0.75994933	      0.38817140	      0.01415458	      0.63736476	      0.36044487	      0.00870980	      0.48414967	      0.33271834	      0.10887866	      3.53569910	      2.46730611	      0.00000000	      0.00000000	      0.00000000	      0.00000000	      0.00000000	     -7.89276487	    -10.51062129	     -2.48153590	     40.71307958	     89.99559364	      0.00000000	      0.00000000	     -7.82352312	     -7.08763020	    -13.47632991	     36.58018516	     89.99559364	      0.00000000	      0.00000000
      1.36666667	     -0.10963093	      9.42076422	   -100.84864061	     -0.00137255	      0.86421131	      0.18676491	      6.06788738	     -3.21680248	      4.70721647	      3.51476043	      0.06134414	      4.57100830	     11.27256644	      0.00000000	      1.65093092	     -2.57159320	    -17.12652700	      1.33224770	      0.02325211	      6.67816310	      1.37248360	      0.00000000	      0.01523117	      0.31178551	      0.39534156	      0.02828580	      0.41467473	      0.42005041	      0.02502328	      0.75807530	      0.42005041	      0.01740770	      0.75807530	      0.34592387	      0.01414366	      0.63579302	      0.32121502	      0.00870309	      0.48295576	      0.29650617	      0.10879469	      3.52698010	      2.19877117	      0.00000000	      0.00000000	      0.00000000	      0.00000000	      0.00000000	     -7.84548017	    -10.39226519	     -2.26957550	     40.24494622	     89.99559364	      0.00000000	      0.00000000	     -7.78119064	     -6.75367517	    -13.41107159	     36.08768795	     89.99559364	      0.00000000	      0.00000000
      1.40000000	      0.12250258	      8.59044072	   -100.97365322	     -0.00231089	      0.86459512	      0.18934463	      5.29218708	     -3.55059489	      4.99829078	      4.01027144	      0.06999244	      5.87436584	     11.10898126	      0.00000000	      0.64659985	     -2.16658102	    -17.70294117	      1.33960926	      0.02338059	      6.60239933	      1.20649931	      0.00000000	      0.01711826	      0.28288729	      0.38548450	      0.03179032	      0.37624010	      0.40957728	      0.02812359	      0.68781216	      0.40957728	      0.01956446	      0.68781216	      0.33729894	      0.01589602	      0.57686377	      0.31320616	      0.00978137	      0.43819241	      0.28911338	      0.12227403	      3.20007762	      2.14394915	      0.00000000	      0.00000000	      0.00000000	      0.00000000	      0.00000000	     -7.65986395	    -10.56043795	     -1.18534100	     39.50008976	     89.99559364	      0.00000000	      0.00000000	     -7.68590361	     -6.57429758	    -13.33832218	     35.36850270	     89.99559364	      0.00000000	      0.00000000
      1.43333333	      0.25844459	      8.02087139	   -100.92880683	     -0.00285438	      0.86492391	      0.19192351	      4.40657690	     -3.77452104	      4.85522976	      3.86398666	      0.06743929	      6.80074561	     10.85554067	      0.00000000	     -0.09977019	     -1.92437658	    -17.77561861	      1.29389678	      0.02258276	      6.87733065	      1.04014825	      0.00000000	      0.01796224	      0.26693552	      0.37293870	      0.03335767	      0.35502425	      0.39624736	      0.02951016	      0.64902704	      0.39624736	      0.02052904	      0.64902704	      0.32632136	      0.01667973	      0.54433492	      0.30301269	      0.01026362	      0.41348313	      0.27970402	      0.12830246	      3.01962804	      2.07417314	      0.00000000	      0.00000000	      0.00000000	      0.00000000	      0.00000000	     -7.94633651	    -10.74831826	     -0.94595589	     39.49834326	     89.99559364	      0.00000000	      0.00000000	     -7.62073198	     -6.31128026	    -13.33102153	     34.88415886	     89.99559364	      0.00000000	      0.00000000
      1.46666667	      0.28918657	      7.78768010	   -100.48543688	     -0.00367330	      0.86571706	      0.19301687	      4.01088291	     -3.81045714	      4.32097646	      3.89664009	      0.06800920	      6.94746141	     10.35755279	      0.00000000	     -0.23833110	     -1.91326393	    -17.38368140	      1.47905981	      0.02581446	      7.12446894	      0.87935837	      0.00000000	      0.01895184	      0.26044103	      0.38605991	      0.03519547	      0.34638657	      0.41018865	      0.03113598	      0.63323632	      0.41018865	      0.02166006	      0.63323632	      0.33780242	      0.01759868	      0.53109135	      0.31367368	      0.01082908	      0.40342315	      0.28954493	      0.13537111	      2.94616101	      2.14714939	      0.00000000	      0.00000000	      0.00000000	      0.00000000	      0.00000000	     -8.28362442	    -10.94172544	     -0.57654129	     39.35932027	     89.99559364	      0.00000000	      0.00000000	     -6.74058503	     -6.11154499	    -13.31629307	     32.88745771	     89.99559364	      0.00000000	      0.00000000
      1.50000000	      0.07005367	      7.79638673	    -99.84467463	     -0.00520169	      0.86687788	      0.19220170	      4.05086662	     -3.47041600	      3.48837556	      4.10883017	      0.07171261	      6.59587681	      9.79421967	      0.00000000	      0.05801852	     -2.27070683	    -17.08457243	      1.87457075	      0.03271743	      7.00339252	      0.69033515	      0.00000000	      0.01666041	      0.27441806	      0.42877883	      0.03094005	      0.36497602	      0.45557751	      0.02737139	      0.66722007	      0.45557751	      0.01904118	      0.66722007	      0.37518148	      0.01547086	      0.55959331	      0.34838280	      0.00951976	      0.42507357	      0.32158412	      0.11900364	      3.10427198	      2.38473923	      0.00000000	      0.00000000	      0.00000000	      0.00000000	      0.00000000	     -8.48955371	    -10.95003910	     -0.78120494	     38.88773761	     89.99559364	      0.00000000	      0.00000000	     -5.75519835	     -5.97939540	    -12.86418909	     30.62390618	     89.99559364	      0.00000000	      0.00000000
      1.53333333	     -0.15491040	      7.88416200	    -99.26761228	     -0.00690667	      0.86795527	      0.19057775	      4.11686475	     -3.07634486	      2.90900829	      4.08209639	      0.07124602	      6.24239050	      9.38715334	      0.00000000	      0.24934119	     -2.64012372	    -16.81178486	      1.88591010	      0.03291534	      6.32073154	      0.72463075	      0.00000000	      0.01878570	      0.28860707	      0.43993538	      0.03488692	      0.38384741	      0.46743134	      0.03086303	      0.70171924	      0.46743134	      0.02147018	      0.70171924	      0.38494345	      0.01744440	      0.58852754	      0.35744749	      0.01073415	      0.44705236	      0.32995153	      0.13418437	      3.26478092	      2.44678858	      0.00000000	      0.00000000	      0.00000000	      0.00000000	      0.00000000	     -8.54707494	    -10.82052855	     -1.62194542	     38.73718893	     89.99559364	      0.00000000	      0.00000000	     -5.33786128	     -6.03383334	    -11.98848303	     28.97466002	     89.99559364	      0.00000000	      0.00000000
